<svg width="474.79161376953124px" height="121.60000610351562px" xmlns="http://www.w3.org/2000/svg" viewBox="12.60419311523438 14.199996948242188 474.79161376953124 121.60000610351562" style="background: rgba(0, 0, 0, 0);" preserveAspectRatio="xMidYMid"><defs><filter id="editing-hole" x="-100%" y="-100%" width="300%" height="300%"><feFlood flood-color="#000" result="black"></feFlood><feMorphology operator="dilate" radius="2" in="SourceGraphic" result="erode"></feMorphology><feGaussianBlur in="erode" stdDeviation="4" result="blur"></feGaussianBlur><feOffset in="blur" dx="2" dy="2" result="offset"></feOffset><feComposite operator="atop" in="offset" in2="black" result="merge"></feComposite><feComposite operator="in" in="merge" in2="SourceGraphic" result="inner-shadow"></feComposite></filter></defs><g filter="url(#editing-hole)"><g transform="translate(83.27794861793518, 102.86999702453613)"><path d="M28.42-9.86L28.42-9.86L28.42-9.86Q29.63-8.32 29.63-5.82L29.63-5.82L29.63-5.82Q29.63-2.37 27.07-0.54L27.07-0.54L27.07-0.54Q24.51 1.28 20.48 1.28L20.48 1.28L20.48 1.28Q18.18 1.28 14.66 0.77L14.66 0.77L14.66 0.77Q7.74-0.32 5.63-0.32L5.63-0.32L5.63-0.32Q3.52-0.32 2.69-0.22L2.69-0.22L2.69-0.22Q1.86-0.13 0.51 0L0.51 0L8.38-42.24L35.97-42.24L35.97-42.24Q35.97-38.34 34.08-36.29L34.08-36.29L34.08-36.29Q32.19-34.24 28.48-34.24L28.48-34.24L28.48-34.24Q24.77-34.24 20.99-35.97L20.99-35.97L19.01-24.77L30.40-24.77L30.40-24.77Q30.40-21.38 28.74-19.49L28.74-19.49L28.74-19.49Q27.07-17.60 24.29-17.60L24.29-17.60L24.29-17.60Q21.50-17.60 19.78-18.24L19.78-18.24L19.78-18.24Q18.05-18.88 17.86-19.07L17.86-19.07L15.55-6.98L15.55-6.98Q17.09-6.78 19.97-6.78L19.97-6.78L19.97-6.78Q24.90-6.78 28.42-9.86ZM38.30-1.92L38.30-1.92L38.30-1.92Q36.80-3.58 36.13-6.21L36.13-6.21L36.13-6.21Q35.46-8.83 35.46-13.12L35.46-13.12L35.46-13.12Q35.46-17.41 36.93-21.31L36.93-21.31L36.93-21.31Q38.40-25.22 41.09-28.03L41.09-28.03L41.09-28.03Q46.59-33.92 55.68-33.92L55.68-33.92L55.68-33.92Q58.94-33.92 61.31-32.83L61.31-32.83L72.26-33.92L67.52-8.96L67.52-8.96Q67.33-8.19 67.33-6.78L67.33-6.78L67.33-6.78Q67.33-5.38 68.19-4.48L68.19-4.48L68.19-4.48Q69.06-3.58 70.34-3.46L70.34-3.46L70.34-3.46Q69.70-1.28 67.36 0L67.36 0L67.36 0Q65.02 1.28 62.40 1.28L62.40 1.28L62.40 1.28Q59.78 1.28 58.02 0.29L58.02 0.29L58.02 0.29Q56.26-0.70 55.74-2.37L55.74-2.37L55.74-2.37Q54.72-0.77 52.54 0.26L52.54 0.26L52.54 0.26Q50.37 1.28 47.46 1.28L47.46 1.28L47.46 1.28Q44.54 1.28 42.18 0.51L42.18 0.51L42.18 0.51Q39.81-0.26 38.30-1.92ZM51.81-27.90L51.81-27.90L51.81-27.90Q51.07-26.75 50.43-24.80L50.43-24.80L50.43-24.80Q49.79-22.85 48.74-17.63L48.74-17.63L48.74-17.63Q47.68-12.42 47.68-8.70L47.68-8.70L47.68-8.70Q47.68-4.99 48.26-3.90L48.26-3.90L48.26-3.90Q48.83-2.82 49.86-2.82L49.86-2.82L49.86-2.82Q51.90-2.82 53.41-4.77L53.41-4.77L53.41-4.77Q54.91-6.72 55.49-10.18L55.49-10.18L58.88-28.93L58.88-28.93Q57.54-30.08 55.97-30.08L55.97-30.08L55.97-30.08Q54.40-30.08 53.47-29.57L53.47-29.57L53.47-29.57Q52.54-29.06 51.81-27.90ZM94.85-22.46L94.85-22.46L94.85-22.46Q95.74-24.83 95.74-26.88L95.74-26.88L95.74-26.88Q95.74-30.66 92.67-30.66L92.67-30.66L92.67-30.66Q91.07-30.66 89.76-29.22L89.76-29.22L89.76-29.22Q88.45-27.78 88.45-25.98L88.45-25.98L88.45-25.98Q88.45-24.70 89.47-23.68L89.47-23.68L89.47-23.68Q90.94-22.27 94.72-19.97L94.72-19.97L94.72-19.97Q98.50-17.66 99.94-15.78L99.94-15.78L99.94-15.78Q101.38-13.89 101.38-11.30L101.38-11.30L101.38-11.30Q101.38-8.70 100.13-6.34L100.13-6.34L100.13-6.34Q98.88-3.97 96.64-2.30L96.64-2.30L96.64-2.30Q91.84 1.28 84.16 1.28L84.16 1.28L84.16 1.28Q80 1.28 76.80-0.90L76.80-0.90L76.80-0.90Q73.60-3.01 73.60-5.50L73.60-5.50L73.60-5.50Q73.60-8 75.42-9.47L75.42-9.47L75.42-9.47Q77.25-10.94 79.94-10.94L79.94-10.94L79.94-10.94Q82.62-10.94 84.29-9.92L84.29-9.92L84.29-9.92Q83.46-7.81 83.46-6.40L83.46-6.40L83.46-6.40Q83.46-2.18 87.04-2.18L87.04-2.18L87.04-2.18Q88.58-2.18 89.60-3.14L89.60-3.14L89.60-3.14Q90.62-4.10 90.62-5.76L90.62-5.76L90.62-5.76Q90.62-9.02 85.12-12.48L85.12-12.48L85.12-12.48Q80.64-15.42 79.62-16.58L79.62-16.58L79.62-16.58Q77.89-18.62 77.89-21.18L77.89-21.18L77.89-21.18Q77.89-23.74 79.10-26.18L79.10-26.18L79.10-26.18Q80.32-28.61 82.56-30.34L82.56-30.34L82.56-30.34Q87.23-33.92 95.36-33.92L95.36-33.92L95.36-33.92Q99.52-33.92 101.98-32.26L101.98-32.26L101.98-32.26Q104.45-30.59 104.45-27.78L104.45-27.78L104.45-27.78Q104.45-24.96 102.75-23.36L102.75-23.36L102.75-23.36Q101.06-21.76 97.98-21.76L97.98-21.76L97.98-21.76Q95.87-21.76 94.85-22.46ZM127.17-7.23L127.17-7.23L127.17-7.23Q123.84-3.78 117.76-3.78L117.76-3.78L117.76-3.78Q110.14-3.78 108.54-9.34L108.54-9.34L108.54-9.34Q108.03-11.01 108.03-12.86L108.03-12.86L108.03-12.86Q108.03-14.72 108.42-16.64L108.42-16.64L111.42-32.64L124.42-33.92L120.90-15.30L120.90-15.30Q120.77-14.46 120.58-13.57L120.58-13.57L120.58-13.57Q120.38-12.67 120.38-11.74L120.38-11.74L120.38-11.74Q120.38-10.82 120.70-10.21L120.70-10.21L120.70-10.21Q121.02-9.60 121.47-9.22L121.47-9.22L121.47-9.22Q122.24-8.70 123.62-8.70L123.62-8.70L123.62-8.70Q124.99-8.70 126.18-10.37L126.18-10.37L126.18-10.37Q127.36-12.03 127.94-14.91L127.94-14.91L131.46-32.64L144.06-33.92L139.26-8.77L139.26-8.77Q136.90 3.52 132.03 8.38L132.03 8.38L132.03 8.38Q129.54 10.88 126.30 11.87L126.30 11.87L126.30 11.87Q123.07 12.86 118.91 12.86L118.91 12.86L118.91 12.86Q112.19 12.86 108.35 10.75L108.35 10.75L108.35 10.75Q104.51 8.64 104.51 5.12L104.51 5.12L104.51 5.12Q104.51 2.50 106.50 0.99L106.50 0.99L106.50 0.99Q108.48-0.51 111.55-0.51L111.55-0.51L111.55-0.51Q114.24-0.51 116.29 0.64L116.29 0.64L116.29 0.64Q117.50 1.34 118.08 2.24L118.08 2.24L118.08 2.24Q116.61 3.52 116.61 5.63L116.61 5.63L116.61 5.63Q116.61 8.45 119.17 8.45L119.17 8.45L119.17 8.45Q123.39 8.45 125.82-1.28L125.82-1.28L125.82-1.28Q126.53-4.16 127.17-7.23ZM145.73-0.32L145.73-0.32L153.79-42.24L153.79-42.24Q161.34-42.88 166.21-42.88L166.21-42.88L166.21-42.88Q171.07-42.88 174.21-42.46L174.21-42.46L174.21-42.46Q177.34-42.05 179.46-40.96L179.46-40.96L179.46-40.96Q183.68-38.91 183.68-33.28L183.68-33.28L183.68-33.28Q183.68-30.02 180.86-27.26L180.86-27.26L180.86-27.26Q178.24-24.77 175.36-24.19L175.36-24.19L175.36-24.19Q178.43-23.68 180.61-21.38L180.61-21.38L180.61-21.38Q182.91-18.94 182.91-15.17L182.91-15.17L182.91-15.17Q182.91-7.87 177.47-3.62L177.47-3.62L177.47-3.62Q172.03 0.64 161.34 0.64L161.34 0.64L161.34 0.64Q153.98 0.64 145.73-0.32ZM163.14-20.61L159.94-4.03L159.94-4.03Q160.51-3.97 160.64-3.97L160.64-3.97L161.22-3.97L161.22-3.97Q166.46-3.97 168.70-7.42L168.70-7.42L168.70-7.42Q170.37-10.11 170.37-15.04L170.37-15.04L170.37-15.04Q170.37-17.66 168.67-19.07L168.67-19.07L168.67-19.07Q166.98-20.48 163.14-20.61L163.14-20.61ZM172.86-33.22L172.86-33.22L172.86-33.22Q172.86-38.53 167.74-38.53L167.74-38.53L167.17-38.53L167.17-38.53Q166.91-38.53 166.53-38.46L166.53-38.46L163.97-24.96L164.61-24.96L164.61-24.96Q172.86-25.15 172.86-33.22ZM207.68-2.69L207.68-2.69L207.68-2.69Q204.61 1.28 196.99 1.28L196.99 1.28L196.99 1.28Q193.02 1.28 190.14-1.12L190.14-1.12L190.14-1.12Q187.26-3.52 187.26-6.98L187.26-6.98L187.26-6.98Q187.26-8.90 187.46-9.86L187.46-9.86L191.74-32.64L204.74-33.92L200.06-9.22L200.06-9.22Q199.81-7.81 199.81-6.98L199.81-6.98L199.81-6.98Q199.81-3.26 202.05-3.26L202.05-3.26L202.05-3.26Q204.54-3.26 206.34-6.66L206.34-6.66L206.34-6.66Q206.91-7.74 207.17-9.15L207.17-9.15L211.71-32.64L224.32-33.92L219.58-8.96L219.58-8.96Q219.39-8 219.39-6.98L219.39-6.98L219.39-6.98Q219.39-5.95 219.97-4.83L219.97-4.83L219.97-4.83Q220.54-3.71 222.40-3.46L222.40-3.46L222.40-3.46Q222.02-1.92 220.67-0.90L220.67-0.90L220.67-0.90Q217.86 1.28 214.82 1.28L214.82 1.28L214.82 1.28Q211.78 1.28 209.98 0.19L209.98 0.19L209.98 0.19Q208.19-0.90 207.68-2.69ZM248.13-7.23L248.13-7.23L248.13-7.23Q244.80-3.78 238.72-3.78L238.72-3.78L238.72-3.78Q231.10-3.78 229.50-9.34L229.50-9.34L229.50-9.34Q228.99-11.01 228.99-12.86L228.99-12.86L228.99-12.86Q228.99-14.72 229.38-16.64L229.38-16.64L232.38-32.64L245.38-33.92L241.86-15.30L241.86-15.30Q241.73-14.46 241.54-13.57L241.54-13.57L241.54-13.57Q241.34-12.67 241.34-11.74L241.34-11.74L241.34-11.74Q241.34-10.82 241.66-10.21L241.66-10.21L241.66-10.21Q241.98-9.60 242.43-9.22L242.43-9.22L242.43-9.22Q243.20-8.70 244.58-8.70L244.58-8.70L244.58-8.70Q245.95-8.70 247.14-10.37L247.14-10.37L247.14-10.37Q248.32-12.03 248.90-14.91L248.90-14.91L252.42-32.64L265.02-33.92L260.22-8.77L260.22-8.77Q257.86 3.52 252.99 8.38L252.99 8.38L252.99 8.38Q250.50 10.88 247.26 11.87L247.26 11.87L247.26 11.87Q244.03 12.86 239.87 12.86L239.87 12.86L239.87 12.86Q233.15 12.86 229.31 10.75L229.31 10.75L229.31 10.75Q225.47 8.64 225.47 5.12L225.47 5.12L225.47 5.12Q225.47 2.50 227.46 0.99L227.46 0.99L227.46 0.99Q229.44-0.51 232.51-0.51L232.51-0.51L232.51-0.51Q235.20-0.51 237.25 0.64L237.25 0.64L237.25 0.64Q238.46 1.34 239.04 2.24L239.04 2.24L239.04 2.24Q237.57 3.52 237.57 5.63L237.57 5.63L237.57 5.63Q237.57 8.45 240.13 8.45L240.13 8.45L240.13 8.45Q244.35 8.45 246.78-1.28L246.78-1.28L246.78-1.28Q247.49-4.16 248.13-7.23ZM293.25-10.82L293.25-10.82L293.25-10.82Q294.85-9.73 294.85-7.33L294.85-7.33L294.85-7.33Q294.85-4.93 293.63-3.39L293.63-3.39L293.63-3.39Q292.42-1.86 290.43-0.83L290.43-0.83L290.43-0.83Q286.34 1.28 281.92 1.28L281.92 1.28L281.92 1.28Q277.50 1.28 274.91 0.32L274.91 0.32L274.91 0.32Q272.32-0.64 270.59-2.43L270.59-2.43L270.59-2.43Q267.20-5.82 267.20-12.03L267.20-12.03L267.20-12.03Q267.20-21.70 272.45-27.58L272.45-27.58L272.45-27.58Q278.08-33.92 287.87-33.92L287.87-33.92L287.87-33.92Q293.95-33.92 296.96-31.36L296.96-31.36L296.96-31.36Q299.20-29.44 299.20-26.30L299.20-26.30L299.20-26.30Q299.20-15.04 279.74-15.04L279.74-15.04L279.74-15.04Q279.49-13.38 279.49-11.97L279.49-11.97L279.49-11.97Q279.49-9.02 280.80-7.90L280.80-7.90L280.80-7.90Q282.11-6.78 284.54-6.78L284.54-6.78L284.54-6.78Q286.98-6.78 289.57-7.90L289.57-7.90L289.57-7.90Q292.16-9.02 293.25-10.82ZM280.19-17.79L280.19-17.79L280.19-17.79Q284.74-17.79 287.36-20.61L287.36-20.61L287.36-20.61Q289.98-23.30 289.98-27.58L289.98-27.58L289.98-27.58Q289.98-29.06 289.44-29.86L289.44-29.86L289.44-29.86Q288.90-30.66 287.81-30.66L287.81-30.66L287.81-30.66Q286.72-30.66 285.79-30.24L285.79-30.24L285.79-30.24Q284.86-29.82 283.90-28.42L283.90-28.42L283.90-28.42Q281.54-25.22 280.19-17.79ZM321.41-17.98L321.41-17.98L321.41-17.98Q323.71-22.08 323.71-26.24L323.71-26.24L323.71-26.24Q323.71-28.99 321.73-28.99L321.73-28.99L321.73-28.99Q320.19-28.99 318.59-26.37L318.59-26.37L318.59-26.37Q316.93-23.74 316.42-20.35L316.42-20.35L313.09 0L299.84 1.28L306.37-32.64L316.93-33.92L315.78-27.46L315.78-27.46Q318.91-33.92 325.95-33.92L325.95-33.92L325.95-33.92Q329.66-33.92 331.68-32L331.68-32L331.68-32Q333.70-30.08 333.70-26.14L333.70-26.14L333.70-26.14Q333.70-22.21 331.10-19.71L331.10-19.71L331.10-19.71Q328.51-17.22 324.10-17.22L324.10-17.22L324.10-17.22Q322.18-17.22 321.41-17.98Z" fill="#ccc"></path></g></g><style>text {
  font-size: 64px;
  font-family: Arial Black;
  dominant-baseline: central;
  text-anchor: middle;
}</style></svg>